<svg xmlns="http://www.w3.org/2000/svg" viewBox="0 0 400 460" role="img"
     aria-labelledby="tituloMascota" width="400" height="460">
  <title id="tituloMascota">La mascota del CEM: un monstruito peludo con birrete y sudadera azul</title>
  <defs>
    <linearGradient id="gPelo" x1="0" y1="0" x2="0" y2="1">
      <stop offset="0"   stop-color="#fbfbfc"/>
      <stop offset=".45" stop-color="#e9eaec"/>
      <stop offset="1"   stop-color="#cfd2d7"/>
    </linearGradient>
    <linearGradient id="gPata" x1="0" y1="0" x2="0" y2="1">
      <stop offset="0" stop-color="#e4e6e9"/><stop offset="1" stop-color="#c8ccd2"/>
    </linearGradient>
    <linearGradient id="gAzul" x1="0" y1="0" x2="0" y2="1">
      <stop offset="0" stop-color="#2f6fd0"/>
      <stop offset=".55" stop-color="#1f57b4"/>
      <stop offset="1" stop-color="#164493"/>
    </linearGradient>
    <linearGradient id="gAzulOscuro" x1="0" y1="0" x2="0" y2="1">
      <stop offset="0" stop-color="#1c4fa5"/><stop offset="1" stop-color="#123c86"/>
    </linearGradient>
    <!-- El arcoíris del birrete va de azul a rojo por la diagonal, como en la
         lámina: el vértice de la izquierda es azul y el de la derecha, rojo. -->
    <!-- De izquierda a derecha y no en diagonal: en la lámina el pico de la
         izquierda es azul franco y el de la derecha, rojo. En diagonal el pico
         izquierdo salía verde azulado y se perdía el azul del principio. -->
    <linearGradient id="gArco" x1="0" y1="0" x2="1" y2="0">
      <stop offset="0"   stop-color="#2a54d4"/>
      <stop offset=".18" stop-color="#1f8fe0"/>
      <stop offset=".36" stop-color="#17b5a8"/>
      <stop offset=".52" stop-color="#4cc04e"/>
      <stop offset=".68" stop-color="#f2c30d"/>
      <stop offset=".85" stop-color="#f0801a"/>
      <stop offset="1"   stop-color="#e5342c"/>
    </linearGradient>
    <linearGradient id="gArcoBanda" x1="0" y1="0" x2="1" y2="0">
      <stop offset="0"   stop-color="#1b63cf"/>
      <stop offset=".3"  stop-color="#16a8bd"/>
      <stop offset=".55" stop-color="#3fbf5a"/>
      <stop offset=".78" stop-color="#e9b90c"/>
      <stop offset="1"   stop-color="#e0522a"/>
    </linearGradient>
    <linearGradient id="gBorla" x1="0" y1="0" x2="0" y2="1">
      <stop offset="0" stop-color="#fdd535"/><stop offset="1" stop-color="#eda211"/>
    </linearGradient>
    <radialGradient id="gSombra" cx=".5" cy=".5" r=".5">
      <stop offset="0" stop-color="#0d1b33" stop-opacity=".26"/>
      <stop offset="1" stop-color="#0d1b33" stop-opacity="0"/>
    </radialGradient>
    <clipPath id="cCuerpo"><path d="M331.1 255C331.3 256.7 331.8 258.4 331.8 260.1C331.9 261.8 331.7 263.6 331.3 265.2C330.8 266.9 329.6 268.5 329.1 270.1C328.6 271.8 328.4 273.4 328.3 275.1C328.1 276.8 328.6 278.6 328.1 280.2C327.7 281.8 326.5 283.3 325.5 284.7C324.5 286.2 322.7 287.4 322.3 289C321.8 290.6 322.2 292.4 322.6 294.3C323 296.1 324.3 298.4 324.5 300.2C324.7 302.1 324.3 303.8 323.7 305.4C323.2 307 322.1 308.5 321.2 309.9C320.3 311.3 319.4 312.8 318.2 314.1C317 315.4 315.3 316.4 313.9 317.5C312.5 318.6 310.8 319.5 309.9 320.9C309 322.3 309 324.2 308.7 325.9C308.3 327.7 308.6 329.8 307.9 331.4C307.2 332.9 305.7 334 304.6 335.2C303.5 336.4 302 337.3 301.1 338.7C300.3 340.2 300.2 342.3 299.5 344C298.9 345.6 298.5 347.6 297.4 348.8C296.3 350.1 294.5 350.7 293 351.5C291.4 352.3 289.7 352.9 288.2 353.7C286.6 354.4 285.2 355.3 283.7 356C282.2 356.7 280.4 357.1 279.1 358C277.7 358.9 276.5 359.8 275.6 361.4C274.8 363 274.6 365.7 273.9 367.5C273.1 369.3 272.3 371.3 271 372.3C269.7 373.3 267.6 373.1 265.9 373.4C264.1 373.8 262.3 373.7 260.7 374.3C259.2 374.9 258 376.2 256.5 376.9C255.1 377.6 253.6 378.3 252 378.7C250.4 379.1 248.5 378.9 247 379.2C245.4 379.6 243.9 380.3 242.4 380.9C240.9 381.5 239.5 382.3 238 382.9C236.5 383.5 234.8 383.5 233.3 384.2C231.9 385 230.5 386.1 229.1 387.3C227.7 388.5 226.4 390.7 224.9 391.5C223.3 392.2 221.6 392.4 219.9 391.9C218.1 391.4 216.2 389.3 214.5 388.5C212.8 387.7 211.1 386.9 209.5 386.8C207.9 386.7 206.4 387.6 204.8 387.9C203.2 388.2 201.6 388.4 200 388.6C198.4 388.9 196.8 388.9 195.2 389.3C193.5 389.6 191.9 390.5 190.2 390.7C188.6 390.9 186.9 390.8 185.3 390.4C183.7 390 182.2 388.9 180.6 388.5C179 388.1 177.4 388.3 175.7 388.2C174.1 388.1 172.3 388.7 170.7 388.1C169.2 387.5 167.9 385.9 166.6 384.5C165.3 383.2 164.3 380.8 162.9 379.8C161.6 378.8 160 378.7 158.4 378.6C156.7 378.5 154.8 379.2 153 379.3C151.3 379.4 149.6 379.1 147.9 378.9C146.3 378.7 144.6 378.4 143 377.9C141.5 377.4 139.8 377 138.5 375.9C137.2 374.8 136.3 372.9 135.3 371.3C134.4 369.7 133.8 367.6 132.6 366.4C131.5 365.2 129.8 364.8 128.4 364.1C126.9 363.5 125 363.3 123.7 362.3C122.5 361.3 121.7 359.6 120.7 358.3C119.7 356.9 118.9 355.3 117.6 354.4C116.3 353.5 114.3 353.4 112.7 352.8C111 352.1 109.1 351.7 107.8 350.8C106.4 349.8 105.4 348.4 104.4 347.1C103.3 345.8 102.3 344.5 101.5 343C100.8 341.5 100 339.9 99.7 338.1C99.3 336.3 99.7 333.9 99.4 332.1C99 330.4 98.7 328.7 97.6 327.5C96.4 326.4 94.1 326 92.5 325.2C90.8 324.3 88.9 323.5 87.8 322.3C86.8 321 86.7 319.1 86.1 317.5C85.5 315.9 85.1 314.3 84.4 312.8C83.7 311.3 82.4 310.1 81.7 308.6C81 307.1 80.6 305.5 80.3 303.8C80 302.1 80.1 300.3 79.9 298.6C79.7 297 79.1 295.4 78.9 293.8C78.6 292.2 78.5 290.5 78.4 288.8C78.4 287.2 79.1 285.3 78.7 283.7C78.3 282.2 77.4 280.8 76.2 279.3C74.9 277.9 72.4 276.7 71.3 275.1C70.2 273.6 69.5 272 69.6 270.3C69.6 268.6 71 266.7 71.6 265C72.3 263.3 72.9 261.6 73.2 259.9C73.6 258.3 73.5 256.6 73.7 255C73.9 253.4 74.5 251.8 74.6 250.1C74.8 248.5 74.8 246.9 74.6 245.2C74.4 243.6 73.5 241.8 73.3 240.2C73.2 238.5 73.4 236.9 73.7 235.2C74 233.6 75.1 232.1 75.2 230.5C75.3 228.8 74.7 227 74.5 225.2C74.2 223.5 73.2 221.4 73.5 219.8C73.9 218.2 75.2 216.8 76.5 215.5C77.8 214.1 80.1 213.2 81.4 211.9C82.6 210.6 83.4 209.2 84 207.7C84.6 206.2 84.7 204.5 85.1 202.9C85.4 201.3 85.9 199.7 86 198C86.2 196.3 86 194.3 86.1 192.5C86.2 190.6 86 188.6 86.7 187.1C87.4 185.6 89 184.6 90.4 183.5C91.7 182.4 93.7 181.8 94.8 180.5C96 179.3 96.3 177.6 97.1 176.1C97.9 174.7 98.3 172.9 99.4 171.7C100.6 170.6 102.5 170 104 169.2C105.4 168.3 107.1 167.7 108.2 166.5C109.2 165.3 109.7 163.5 110.4 162C111.1 160.4 111.7 158.6 112.5 157.1C113.3 155.6 114.3 154.2 115.2 152.7C116.1 151.2 116.8 149.4 118 148.2C119.1 147 120.4 145.9 122.2 145.5C123.9 145.1 126.4 145.8 128.2 145.7C130.1 145.6 132 145.7 133.4 144.9C134.8 144.1 135.4 142.2 136.5 140.8C137.6 139.4 138.5 137.7 139.8 136.7C141.1 135.7 142.8 135.5 144.2 134.7C145.7 134 147.1 133.2 148.4 132.2C149.8 131.2 150.9 129.7 152.3 128.8C153.7 127.9 155.3 127.4 156.8 126.9C158.4 126.4 160 126.1 161.6 125.7C163.1 125.2 164.6 124.3 166.2 124.1C167.9 123.9 169.6 124.2 171.3 124.6C173.1 125.1 175 126.6 176.6 126.7C178.3 126.8 179.7 126.3 181.2 125.3C182.6 124.3 183.9 121.8 185.4 120.5C186.9 119.3 188.5 118.2 190.1 117.8C191.7 117.4 193.4 118 195.1 118.2C196.7 118.3 198.4 118.4 200 118.6C201.6 118.9 203.3 119.1 204.9 119.6C206.5 120.1 208 121.2 209.6 121.6C211.2 122.1 212.8 122.4 214.4 122.4C216 122.5 217.7 121.8 219.3 121.9C220.9 122.1 222.5 122.8 224 123.4C225.5 124 226.8 125.3 228.5 125.5C230.1 125.7 231.9 124.9 233.7 124.4C235.5 123.9 237.6 122.6 239.3 122.6C241 122.6 242.6 123.5 244 124.6C245.3 125.6 246.4 127.6 247.7 128.9C248.9 130.2 250.2 131.3 251.5 132.4C252.8 133.5 254 134.7 255.3 135.6C256.7 136.6 257.8 137.8 259.4 138.3C261 138.8 262.9 138.5 264.7 138.6C266.5 138.8 268.7 138.3 270.2 139C271.8 139.6 272.8 141.1 274 142.3C275.2 143.5 275.9 145.3 277.2 146.4C278.5 147.4 280.3 147.7 281.8 148.5C283.3 149.3 285 149.8 286.1 151.1C287.2 152.4 287.6 154.5 288.3 156.2C289 157.9 289.4 159.8 290.3 161.2C291.2 162.7 292.4 163.7 293.6 164.8C294.7 166 295.8 167.2 297.1 168.2C298.4 169.2 299.7 170.2 301.4 171.1C303 171.9 305.3 172.1 306.9 173.1C308.4 174 310 175.1 310.6 176.7C311.2 178.3 310.7 180.8 310.7 182.7C310.8 184.7 310.5 186.8 311 188.4C311.6 190 313 191.1 313.9 192.5C314.8 193.9 315.9 195.2 316.5 196.7C317.2 198.2 317.2 200.1 317.8 201.6C318.4 203.2 319.2 204.6 320 206.1C320.9 207.5 322.2 208.8 323 210.3C323.8 211.8 324.2 213.4 324.9 215C325.6 216.5 326.4 218.1 327.1 219.6C327.9 221.2 329.4 222.6 329.7 224.3C330 225.9 329.8 227.8 329.1 229.6C328.5 231.5 326.5 233.5 325.8 235.3C325.2 237.1 324.9 238.7 325.4 240.3C325.8 242 327.5 243.4 328.3 245C329.2 246.6 330 248.3 330.5 249.9C330.9 251.6 330.9 253.3 331.1 255Z"/></clipPath>
  </defs>

  <ellipse cx="200" cy="424" rx="128" ry="24" fill="url(#gSombra)"/>

  
    <g>
      <path d="M127 344 q-8 34 -2 56 q5 16 32 16 q27 0 32 -16 q6 -22 -2 -56 Z"
            fill="url(#gPata)"/>
      <ellipse cx="140" cy="407" rx="8"   ry="6.2" fill="#c3c7ce" opacity=".9"/>
      <ellipse cx="157"      cy="410" rx="8.6" ry="6.6" fill="#c3c7ce" opacity=".9"/>
      <ellipse cx="174" cy="407" rx="8"   ry="6.2" fill="#c3c7ce" opacity=".9"/>
    </g>
  
    <g>
      <path d="M213 344 q-8 34 -2 56 q5 16 32 16 q27 0 32 -16 q6 -22 -2 -56 Z"
            fill="url(#gPata)"/>
      <ellipse cx="226" cy="407" rx="8"   ry="6.2" fill="#c3c7ce" opacity=".9"/>
      <ellipse cx="243"      cy="410" rx="8.6" ry="6.6" fill="#c3c7ce" opacity=".9"/>
      <ellipse cx="260" cy="407" rx="8"   ry="6.2" fill="#c3c7ce" opacity=".9"/>
    </g>

  <!-- CUERPO -->
  <g>
    <path d="M70.5 242.3Q65.2 246.2 70 250.7ZM71.7 233Q64.8 235.7 70.5 242ZM73.5 223.8Q64.8 227.8 71.6 233.4ZM75.9 214.8Q66.2 218.3 73.1 224.8ZM78.8 205.9Q69.6 207.2 75.3 216.3ZM82.4 197.4Q72.9 199.7 77.9 208ZM86.5 189.1Q77.4 192.4 81.1 199.8ZM91.1 181.2Q83.7 183.4 84.8 191.8ZM96.2 173.7Q87.6 174.9 89.1 184.1ZM101.7 166.6Q91.1 167.9 93.8 176.6ZM107.7 159.9Q97.3 158.9 99.1 169.4ZM114 153.7Q104.5 151.3 104.9 162.6ZM120.7 148Q110.1 146.7 111.1 156.1ZM127.6 142.8Q118.3 141.2 117.8 150.1ZM134.9 138.1Q127.7 136.3 124.9 144.5ZM142.4 133.9Q134.2 131.3 132.4 139.5ZM150.1 130.3Q141.1 126.3 140.2 134.9ZM158 127.2Q151.1 121 148.4 130.9ZM166 124.7Q159.3 117.9 156.8 127.5ZM174.2 122.7Q166.7 116.3 165.4 124.7ZM182.5 121.2Q177.5 114.9 174.1 122.6ZM191.5 120.2Q187.1 115.1 182.4 121.1ZM200.6 119.9Q194.6 114.1 190.7 120.2ZM209.6 120.3Q204.3 112.7 199.1 119.9ZM218.6 121.2Q215.2 112.7 207.5 120.1ZM227.4 122.9Q222.6 113.4 216 120.9ZM236.1 125.1Q231.1 115.6 224.4 122.3ZM244.5 127.9Q241.7 119.6 232.7 124.3ZM252.7 131.3Q249.1 123.7 241 126.8ZM260.6 135.3Q256.5 126.9 249.1 129.9ZM268.2 139.8Q266.6 130.6 257 133.6ZM275.5 144.7Q275.3 135 264.8 137.9ZM282.3 150.2Q281.3 139 272.3 142.7ZM288.8 156Q289.3 145.7 279.5 148.1ZM294.8 162.3Q296.4 153.8 286.3 154ZM300.4 168.9Q300.7 160.3 292.8 160.4ZM305.6 175.8Q306.3 167.6 298.9 167.3ZM310.2 183.1Q313.8 175.8 304.5 174.7ZM314.5 190.6Q319 182.5 309.6 182.4ZM318.2 198.4Q323.1 189.5 314.2 190.5ZM321.5 206.7Q327.7 200.2 318.2 198.7ZM324.5 215.5Q330.1 209.4 321.4 206.7ZM326.8 224.6Q331.1 217.3 324.2 215ZM328.5 233.8Q333 227.5 326.5 223.4ZM329.6 243.1Q335.9 237.7 328.2 232ZM330.1 252.4Q337.6 245.2 329.4 240.7ZM329.5 267.7Q333.9 263.7 330 259.3ZM328 278.9Q333.8 276 329.3 269.9ZM325.6 289.9Q333 286 327.8 280.4ZM322.4 300.7Q330.7 297.3 325.5 290.8ZM318.3 311.2Q326.3 309.7 322.4 301ZM313.3 321.2Q321.7 318.9 318.5 310.9ZM307.6 330.7Q315.9 327.8 313.9 320.5ZM301.2 339.7Q308.1 337.7 308.5 329.8ZM294.2 348.1Q302 347.1 302.4 338.6ZM286.5 355.8Q296.1 355.1 295.6 346.9ZM278.3 362.8Q287.5 364.1 288.2 354.6ZM269.6 369Q278 371.6 280.1 361.7ZM260.6 374.5Q269.9 376.5 271.4 368.1ZM251.1 379.2Q259.4 381.4 262.2 373.8ZM241.4 383Q247.9 385.3 252.5 378.7ZM231.5 386.1Q238.6 389.3 242.4 382.8ZM221.4 388.2Q228.8 392.9 232.1 386ZM211.2 389.6Q216.3 395.8 221.4 388.3ZM179.5 388.4Q183.2 393.1 187.9 389.5ZM168.8 386.2Q171.4 392.2 177.7 388.1ZM158.4 383Q161.8 390.7 167.7 385.8ZM148.2 379Q151.1 387.5 157.9 382.8ZM138.4 374.1Q139.4 382.2 148.3 378.9ZM129.1 368.4Q130.8 376.9 139 374.3ZM120.3 361.9Q122.7 370.3 130 368.8ZM112 354.8Q113.6 361.7 121.5 362.7ZM104.4 346.9Q105 354.8 113.4 355.8ZM97.5 338.5Q97.7 348.1 105.9 348.2ZM91.3 329.6Q89.5 338.7 98.9 339.9ZM85.9 320.2Q82.8 328.4 92.6 331.1ZM81.2 310.5Q78.6 319.7 86.9 321.7ZM77.3 300.4Q74.6 308.6 82 311.8ZM74.3 290.1Q71.6 296.4 77.9 301.4ZM72 279.6Q68.3 286.5 74.6 290.8ZM70.6 269Q65.4 276.1 72.1 279.8ZM69.9 258.3Q63.4 263.1 70.6 268.6Z" fill="#e8eaec"/>
    <path d="M331.1 255C331.3 256.7 331.8 258.4 331.8 260.1C331.9 261.8 331.7 263.6 331.3 265.2C330.8 266.9 329.6 268.5 329.1 270.1C328.6 271.8 328.4 273.4 328.3 275.1C328.1 276.8 328.6 278.6 328.1 280.2C327.7 281.8 326.5 283.3 325.5 284.7C324.5 286.2 322.7 287.4 322.3 289C321.8 290.6 322.2 292.4 322.6 294.3C323 296.1 324.3 298.4 324.5 300.2C324.7 302.1 324.3 303.8 323.7 305.4C323.2 307 322.1 308.5 321.2 309.9C320.3 311.3 319.4 312.8 318.2 314.1C317 315.4 315.3 316.4 313.9 317.5C312.5 318.6 310.8 319.5 309.9 320.9C309 322.3 309 324.2 308.7 325.9C308.3 327.7 308.6 329.8 307.9 331.4C307.2 332.9 305.7 334 304.6 335.2C303.5 336.4 302 337.3 301.1 338.7C300.3 340.2 300.2 342.3 299.5 344C298.9 345.6 298.5 347.6 297.4 348.8C296.3 350.1 294.5 350.7 293 351.5C291.4 352.3 289.7 352.9 288.2 353.7C286.6 354.4 285.2 355.3 283.7 356C282.2 356.7 280.4 357.1 279.1 358C277.7 358.9 276.5 359.8 275.6 361.4C274.8 363 274.6 365.7 273.9 367.5C273.1 369.3 272.3 371.3 271 372.3C269.7 373.3 267.6 373.1 265.9 373.4C264.1 373.8 262.3 373.7 260.7 374.3C259.2 374.9 258 376.2 256.5 376.9C255.1 377.6 253.6 378.3 252 378.7C250.4 379.1 248.5 378.9 247 379.2C245.4 379.6 243.9 380.3 242.4 380.9C240.9 381.5 239.5 382.3 238 382.9C236.5 383.5 234.8 383.5 233.3 384.2C231.9 385 230.5 386.1 229.1 387.3C227.7 388.5 226.4 390.7 224.9 391.5C223.3 392.2 221.6 392.4 219.9 391.9C218.1 391.4 216.2 389.3 214.5 388.5C212.8 387.7 211.1 386.9 209.5 386.8C207.9 386.7 206.4 387.6 204.8 387.9C203.2 388.2 201.6 388.4 200 388.6C198.4 388.9 196.8 388.9 195.2 389.3C193.5 389.6 191.9 390.5 190.2 390.7C188.6 390.9 186.9 390.8 185.3 390.4C183.7 390 182.2 388.9 180.6 388.5C179 388.1 177.4 388.3 175.7 388.2C174.1 388.1 172.3 388.7 170.7 388.1C169.2 387.5 167.9 385.9 166.6 384.5C165.3 383.2 164.3 380.8 162.9 379.8C161.6 378.8 160 378.7 158.4 378.6C156.7 378.5 154.8 379.2 153 379.3C151.3 379.4 149.6 379.1 147.9 378.9C146.3 378.7 144.6 378.4 143 377.9C141.5 377.4 139.8 377 138.5 375.9C137.2 374.8 136.3 372.9 135.3 371.3C134.4 369.7 133.8 367.6 132.6 366.4C131.5 365.2 129.8 364.8 128.4 364.1C126.9 363.5 125 363.3 123.7 362.3C122.5 361.3 121.7 359.6 120.7 358.3C119.7 356.9 118.9 355.3 117.6 354.4C116.3 353.5 114.3 353.4 112.7 352.8C111 352.1 109.1 351.7 107.8 350.8C106.4 349.8 105.4 348.4 104.4 347.1C103.3 345.8 102.3 344.5 101.5 343C100.8 341.5 100 339.9 99.7 338.1C99.3 336.3 99.7 333.9 99.4 332.1C99 330.4 98.7 328.7 97.6 327.5C96.4 326.4 94.1 326 92.5 325.2C90.8 324.3 88.9 323.5 87.8 322.3C86.8 321 86.7 319.1 86.1 317.5C85.5 315.9 85.1 314.3 84.4 312.8C83.7 311.3 82.4 310.1 81.7 308.6C81 307.1 80.6 305.5 80.3 303.8C80 302.1 80.1 300.3 79.9 298.6C79.7 297 79.1 295.4 78.9 293.8C78.6 292.2 78.5 290.5 78.4 288.8C78.4 287.2 79.1 285.3 78.7 283.7C78.3 282.2 77.4 280.8 76.2 279.3C74.9 277.9 72.4 276.7 71.3 275.1C70.2 273.6 69.5 272 69.6 270.3C69.6 268.6 71 266.7 71.6 265C72.3 263.3 72.9 261.6 73.2 259.9C73.6 258.3 73.5 256.6 73.7 255C73.9 253.4 74.5 251.8 74.6 250.1C74.8 248.5 74.8 246.9 74.6 245.2C74.4 243.6 73.5 241.8 73.3 240.2C73.2 238.5 73.4 236.9 73.7 235.2C74 233.6 75.1 232.1 75.2 230.5C75.3 228.8 74.7 227 74.5 225.2C74.2 223.5 73.2 221.4 73.5 219.8C73.9 218.2 75.2 216.8 76.5 215.5C77.8 214.1 80.1 213.2 81.4 211.9C82.6 210.6 83.4 209.2 84 207.7C84.6 206.2 84.7 204.5 85.1 202.9C85.4 201.3 85.9 199.7 86 198C86.2 196.3 86 194.3 86.1 192.5C86.2 190.6 86 188.6 86.7 187.1C87.4 185.6 89 184.6 90.4 183.5C91.7 182.4 93.7 181.8 94.8 180.5C96 179.3 96.3 177.6 97.1 176.1C97.9 174.7 98.3 172.9 99.4 171.7C100.6 170.6 102.5 170 104 169.2C105.4 168.3 107.1 167.7 108.2 166.5C109.2 165.3 109.7 163.5 110.4 162C111.1 160.4 111.7 158.6 112.5 157.1C113.3 155.6 114.3 154.2 115.2 152.7C116.1 151.2 116.8 149.4 118 148.2C119.1 147 120.4 145.9 122.2 145.5C123.9 145.1 126.4 145.8 128.2 145.7C130.1 145.6 132 145.7 133.4 144.9C134.8 144.1 135.4 142.2 136.5 140.8C137.6 139.4 138.5 137.7 139.8 136.7C141.1 135.7 142.8 135.5 144.2 134.7C145.7 134 147.1 133.2 148.4 132.2C149.8 131.2 150.9 129.7 152.3 128.8C153.7 127.9 155.3 127.4 156.8 126.9C158.4 126.4 160 126.1 161.6 125.7C163.1 125.2 164.6 124.3 166.2 124.1C167.9 123.9 169.6 124.2 171.3 124.6C173.1 125.1 175 126.6 176.6 126.7C178.3 126.8 179.7 126.3 181.2 125.3C182.6 124.3 183.9 121.8 185.4 120.5C186.9 119.3 188.5 118.2 190.1 117.8C191.7 117.4 193.4 118 195.1 118.2C196.7 118.3 198.4 118.4 200 118.6C201.6 118.9 203.3 119.1 204.9 119.6C206.5 120.1 208 121.2 209.6 121.6C211.2 122.1 212.8 122.4 214.4 122.4C216 122.5 217.7 121.8 219.3 121.9C220.9 122.1 222.5 122.8 224 123.4C225.5 124 226.8 125.3 228.5 125.5C230.1 125.7 231.9 124.9 233.7 124.4C235.5 123.9 237.6 122.6 239.3 122.6C241 122.6 242.6 123.5 244 124.6C245.3 125.6 246.4 127.6 247.7 128.9C248.9 130.2 250.2 131.3 251.5 132.4C252.8 133.5 254 134.7 255.3 135.6C256.7 136.6 257.8 137.8 259.4 138.3C261 138.8 262.9 138.5 264.7 138.6C266.5 138.8 268.7 138.3 270.2 139C271.8 139.6 272.8 141.1 274 142.3C275.2 143.5 275.9 145.3 277.2 146.4C278.5 147.4 280.3 147.7 281.8 148.5C283.3 149.3 285 149.8 286.1 151.1C287.2 152.4 287.6 154.5 288.3 156.2C289 157.9 289.4 159.8 290.3 161.2C291.2 162.7 292.4 163.7 293.6 164.8C294.7 166 295.8 167.2 297.1 168.2C298.4 169.2 299.7 170.2 301.4 171.1C303 171.9 305.3 172.1 306.9 173.1C308.4 174 310 175.1 310.6 176.7C311.2 178.3 310.7 180.8 310.7 182.7C310.8 184.7 310.5 186.8 311 188.4C311.6 190 313 191.1 313.9 192.5C314.8 193.9 315.9 195.2 316.5 196.7C317.2 198.2 317.2 200.1 317.8 201.6C318.4 203.2 319.2 204.6 320 206.1C320.9 207.5 322.2 208.8 323 210.3C323.8 211.8 324.2 213.4 324.9 215C325.6 216.5 326.4 218.1 327.1 219.6C327.9 221.2 329.4 222.6 329.7 224.3C330 225.9 329.8 227.8 329.1 229.6C328.5 231.5 326.5 233.5 325.8 235.3C325.2 237.1 324.9 238.7 325.4 240.3C325.8 242 327.5 243.4 328.3 245C329.2 246.6 330 248.3 330.5 249.9C330.9 251.6 330.9 253.3 331.1 255Z" fill="url(#gPelo)"/>
    <g clip-path="url(#cCuerpo)">
      <!-- Sombra propia por los lados: sin esto el cuerpo se ve plano. -->
      <ellipse cx="200" cy="255" rx="130" ry="135" fill="none"
               stroke="#b7bbc2" stroke-width="30" opacity=".22"/>
      <!-- Las hebras van muy suaves: subidas de opacidad se leen como rayas
           blancas pintadas encima, no como pelo. -->
      <path d="M182 272q1.6 22.9 4.6 45.8M192 264q0.6 29 1.7 58M206 264q-0.6 29 -1.7 58M216 272q-1.6 22.9 -4.6 45.8M174 292q2.1 19.8 6 39.6M226 292q-2.1 19.8 -6 39.6M188 306q0.8 24 2.4 47.9M212 306q-0.8 24 -2.4 47.9M200 322q0 22 0 44M180 334q1.3 14.9 3.6 29.8M220 334q-1.3 14.9 -3.6 29.8M162 256q2.1 13.7 6.1 27.3M238 256q-2.1 13.7 -6.1 27.3M196 172q0.4 11 1.1 22M206 170q-0.4 11 -1.1 22M150 292q1.7 11.8 4.8 23.5M250 292q-1.7 11.8 -4.8 23.5" fill="none" stroke="#ffffff" stroke-width="3.2"
            stroke-linecap="round" opacity=".4"/>
      <path d="M182 272q1.6 22.9 4.6 45.8M192 264q0.6 29 1.7 58M206 264q-0.6 29 -1.7 58M216 272q-1.6 22.9 -4.6 45.8M174 292q2.1 19.8 6 39.6M226 292q-2.1 19.8 -6 39.6M188 306q0.8 24 2.4 47.9M212 306q-0.8 24 -2.4 47.9M200 322q0 22 0 44M180 334q1.3 14.9 3.6 29.8M220 334q-1.3 14.9 -3.6 29.8M162 256q2.1 13.7 6.1 27.3M238 256q-2.1 13.7 -6.1 27.3M196 172q0.4 11 1.1 22M206 170q-0.4 11 -1.1 22M150 292q1.7 11.8 4.8 23.5M250 292q-1.7 11.8 -4.8 23.5" fill="none" stroke="#c4c8ce" stroke-width="1.1"
            stroke-linecap="round" opacity=".28" transform="translate(3.5,0)"/>
    </g>
  </g>

  <!-- SUDADERA
       ─────────────────────────────────────────────────────────────────────
       Va abierta y sólo cubre los lados: por el centro se ve una franja ancha
       de pelo, que es lo que hace que siga leyéndose como un bicho peludo con
       chaqueta y no como un muñeco vestido de azul. El primer intento la puso
       cerrada y empezando bajo la boca, y se comió el cuerpo entero.

       La capucha va DETRÁS del cuello y sólo asoma por los hombros. Cruzarla
       por delante le tapaba la barbilla. -->
  <g>
    <path d="M146 270 q54 -20 108 0 q-4 -20 -54 -20 q-50 0 -54 20 Z" fill="url(#gAzulOscuro)"/>

    <!-- mangas: se quedan DENTRO de la silueta del pelo. Al salirse parecían
         una falda azul y el bicho dejaba de tener cuerpo. -->
    <path d="M146 270 q-40 16 -48 56 q-6 34 0 52 q19 8 36 1 q-5 -54 12 -84 Z"
          fill="url(#gAzul)"/>
    <path d="M254 270 q40 16 48 56 q6 34 0 52 q-19 8 -36 1 q5 -54 -12 -84 Z"
          fill="url(#gAzul)"/>

    <!-- delanteros: dos tiras estrechas. La chaqueta va MUY abierta, y por el
         centro se ve una franja ancha de barriga peluda: es lo que hace que
         siga leyéndose como un bicho con chaqueta. -->
    <path d="M146 270 q-9 44 -5 76 q2 20 8 32 q24 7 36 -1 q-8 -58 -3 -108 Z"
          fill="url(#gAzul)"/>
    <path d="M254 270 q9 44 5 76 q-2 20 -8 32 q-24 7 -36 -1 q8 -58 3 -108 Z"
          fill="url(#gAzul)"/>

    <!-- cremallera del borde, bolsillos y costura -->
    <path d="M181 274 q-6 52 2 104" fill="none" stroke="#0f3a80" stroke-width="2.6"
          stroke-linecap="round" opacity=".75"/>
    <path d="M219 274 q6 52 -2 104" fill="none" stroke="#0f3a80" stroke-width="2.6"
          stroke-linecap="round" opacity=".75"/>
    <rect x="148" y="318" width="26" height="3.6" rx="1.8" fill="#0f3a80" opacity=".6"/>
    <rect x="226" y="318" width="26" height="3.6" rx="1.8" fill="#0f3a80" opacity=".6"/>
    <path d="M150 340 h24" stroke="#0f3a80" stroke-width="2" opacity=".4"/>
    <path d="M226 340 h24" stroke="#0f3a80" stroke-width="2" opacity=".4"/>
    <path d="M144 278 q-24 20 -30 50" fill="none" stroke="#5b96ea" stroke-width="5"
          stroke-linecap="round" opacity=".4"/>
    <path d="M256 278 q24 20 30 50" fill="none" stroke="#5b96ea" stroke-width="5"
          stroke-linecap="round" opacity=".4"/>
  </g>

  <!-- CARA -->
  
    <g>
      <ellipse cx="168" cy="190" rx="34" ry="36.04" fill="#fff"/>
      <ellipse cx="168" cy="190" rx="34" ry="36.04" fill="none"
               stroke="#c2c6cd" stroke-width="1.2" opacity=".7"/>
      <circle cx="172" cy="193" r="20.4" fill="#3a4048"/>
      <circle cx="172" cy="193" r="10.2" fill="#12161c"/>
      <circle cx="164.52" cy="184.16" r="6.46" fill="#fff"/>
      <circle cx="178.8" cy="199.12" r="3.06" fill="#fff" opacity=".65"/>
    </g>
  
    <g>
      <ellipse cx="236" cy="190" rx="34" ry="36.04" fill="#fff"/>
      <ellipse cx="236" cy="190" rx="34" ry="36.04" fill="none"
               stroke="#c2c6cd" stroke-width="1.2" opacity=".7"/>
      <circle cx="232" cy="193" r="20.4" fill="#3a4048"/>
      <circle cx="232" cy="193" r="10.2" fill="#12161c"/>
      <circle cx="224.52" cy="184.16" r="6.46" fill="#fff"/>
      <circle cx="238.8" cy="199.12" r="3.06" fill="#fff" opacity=".65"/>
    </g>

  <!-- La boca: una sonrisa ancha con dos colmillos colgando de arriba.
       Los colmillos son la firma del bicho; sin ellos es un peluche cualquiera. -->
  <path d="M156 231 q44 12 88 0 q-4 46 -44 46 q-40 0 -44 -46 Z" fill="#3a3230"/>
  <path d="M170 253 q30 22 60 0 q-6 20 -30 20 q-24 0 -30 -20 Z" fill="#8d4a4f" opacity=".75"/>
  <path d="M170 236 l11 1.6 l-2 16 q-8 0 -9 -17.6 Z" fill="#fbfbf7"/>
  <path d="M230 236 l-11 1.6 l2 16 q8 0 9 -17.6 Z" fill="#fbfbf7"/>

  <!-- BIRRETE
       ─────────────────────────────────────────────────────────────────────
       Muy aplastado a propósito: en la lámina se ve casi de canto. Un rombo
       alto le baja el vértice de delante hasta entre los ojos y le tapa media
       cara, que es exactamente lo que pasó al primer intento.
       El orden es: banda que se hunde en el pelo, tabla encima, borla al final. -->
  <g>
    <path d="M152 124 q48 -17 96 0 q3 19 -3 25 q-45 15 -90 0 q-6 -6 -3 -25 Z"
          fill="url(#gArcoBanda)"/>
    <path d="M152 128 q48 -15 96 0" fill="none" stroke="#ffffff" stroke-width="2" opacity=".3"/>
    <path d="M200 98 L314 120 L200 142 L86 120 Z" fill="url(#gArco)"/>
    <path d="M200 98 L314 120 L200 142 L86 120 Z" fill="none" stroke="#ffffff"
          stroke-width="1.6" opacity=".4"/>
    <path d="M200 142 L314 120 L314 126 L200 148 Z" fill="#1b1f26" opacity=".2"/>
    <path d="M200 142 L86 120 L86 126 L200 148 Z" fill="#1b1f26" opacity=".28"/>
    <circle cx="200" cy="120" r="6.5" fill="#e5342c"/>
    <circle cx="198" cy="118" r="2.4" fill="#ff8a80" opacity=".8"/>
    <!-- la borla sale del botón, cruza hasta el pico derecho y cae al lado de la cara -->
    <path d="M200 120 q44 -3 80 4" fill="none" stroke="#e5342c" stroke-width="4.5"
          stroke-linecap="round"/>
    <circle cx="282" cy="125" r="8.5" fill="#e5342c"/>
    <circle cx="279" cy="122" r="2.8" fill="#ff8a80" opacity=".75"/>
    <path d="M273 131 q9 6 18 0 q5 46 -3 66 q-6 5 -12 0 q-8 -20 -3 -66 Z" fill="url(#gBorla)"/>
    <path d="M277 135 v60 M282 135 v62 M287 135 v60" stroke="#c8880c"
          stroke-width="1.2" opacity=".5"/>
  </g>
</svg>
